<?xml version="1.0" encoding="utf-8"?>
<!-- Generator: Adobe Illustrator 16.0.0, SVG Export Plug-In . SVG Version: 6.00 Build 0)  -->
<!DOCTYPE svg PUBLIC "-//W3C//DTD SVG 1.1//EN" "http://www.w3.org/Graphics/SVG/1.1/DTD/svg11.dtd">
<svg version="1.1" id="图层_1" xmlns="http://www.w3.org/2000/svg" xmlns:xlink="http://www.w3.org/1999/xlink" x="0px" y="0px"
	 width="13px" height="24px" viewBox="0 0 13 24" enable-background="new 0 0 13 24" xml:space="preserve">
<path fill="#919191" d="M11.759,12.543c-0.313,0.307-0.823,0.307-1.138,0L1.242,3.332c-0.313-0.309-0.313-0.808,0-1.115
	c0.313-0.309,0.822-0.309,1.137,0l9.38,9.21C12.07,11.733,12.07,12.232,11.759,12.543L11.759,12.543z"/>
<path fill="#919191" d="M11.716,11.417c0.313,0.309,0.316,0.806,0.006,1.115L2.38,21.783c-0.313,0.307-0.82,0.313-1.136,0.004
	C0.93,21.48,0.927,20.982,1.239,20.67l9.34-9.249C10.893,11.113,11.402,11.111,11.716,11.417L11.716,11.417z"/>
</svg>
